<svg xmlns="http://www.w3.org/2000/svg" width="247" height="130" viewBox="0 0 247 130">
    <g fill="none" fill-rule="evenodd">
        <g fill="#f96271" fill-rule="nonzero">
            <g>
                <g>
                    <g>
                        <path d="M72.724 109.714c5.066 0 9.173 4.094 9.173 9.143 0 5.05-4.107 9.143-9.173 9.143s-9.172-4.093-9.172-9.143c0-5.05 4.106-9.143 9.172-9.143zM176.984.07c.842-.174 1.718-.016 2.446.438.688.495 1.243 1.152 1.613 1.912.358.785.583 1.624.666 2.483.016.306-.034 1.936-.533 2.342-.865.76-2.953 2.788-3.477 3.31-3.41 3.376-8.45 8.565-11.27 12.595-2.82 4.03-6.388 9.078-7.32 12.305 0 0-2.004 8.002 5.773 16.642.39-.193.766-.414 1.123-.662 4.708-3.426 8.534-13.282 8.534-13.282.45-.806 1.204-1.401 2.096-1.655.823-.166 1.672-.166 2.495 0 .788.145 1.527.48 2.154.976.562.379.822 1.069.65 1.722-.552 2.012-.955 4.061-1.207 6.132-.22 1.678-.292 3.373-.216 5.064.018 1.142.27 2.268.74 3.31.408.745.932 1.01 1.605.828 2.338-.646 4.292-4.063 4.99-6.935v-.778c.067-1.928.467-9.045.966-10.377.266-.679 1.497-1.498 2.329-1.87.765-.367 1.604-.56 2.453-.563.74-.024 1.47.172 2.096.563.567.393.785 1.125.524 1.762-.116.398-.257.944-.424 1.614-.166.67-.34 1.456-.516 2.325-.174.87-.349 1.796-.515 2.797-.167 1.002-.316 2.011-.45 3.037l.001-.004.192-.732c.334-1.224.73-2.43 1.189-3.613l.282-.707c.66-1.584 1.528-3.076 2.579-4.435.986-1.339 2.173-2.52 3.518-3.5 1.008-.751 2.16-1.286 3.385-1.573.938-.218 1.922-.116 2.795.29.842.41 1.506 1.11 1.871 1.97.34.869.502 1.797.474 2.73-.003 1.134-.078 2.268-.224 3.393-.142 1.175-.324 2.342-.524 3.5-.2 1.159-.341 2.177-.416 3.062-.09.682-.052 1.375.108 2.044.15.464.508.646 1.073.464.592-.223 1.085-.648 1.39-1.2.505-.775.947-1.588 1.322-2.433 2.038-6.076 3.525-12.321 4.441-18.661 1.938-14.672 5.024-20.159 7.444-22.12 2.04-1.472 4.689-1.823 7.045-.935 3.876 1.53 2.579 7.746 2.063 9.806-.516 2.06-4.175 11.958-8.151 17.502l.53-.526c1.072-1.04 2.215-2.006 3.42-2.891 1.003-.772 2.165-1.312 3.403-1.58.946-.224 1.94-.122 2.82.289.832.422 1.489 1.122 1.854 1.977.341.87.51 1.798.5 2.731.004 1.132-.062 2.262-.2 3.385-.15 1.183-.333 2.342-.533 3.5-.2 1.159-.34 2.177-.416 3.062-.086.686-.047 1.381.117 2.053.141.455.499.637 1.065.455.598-.215 1.097-.639 1.405-1.192.506-.773.946-1.587 1.314-2.433.425-.952.849-2.003 1.256-3.128.408-1.125.824-2.25 1.24-3.368.237-.722.635-1.38 1.164-1.928.276-.323.69-.498 1.115-.472.316.066.54.34.69.828.146.63.114 1.289-.091 1.903-.2.811-.458 1.754-.832 2.838-.375 1.084-.749 2.218-1.206 3.368-.458 1.15-.965 2.276-1.53 3.377-.51 1.002-1.142 1.939-1.88 2.789-.736.818-1.641 1.467-2.654 1.903-.914.4-1.904.599-2.903.58-.91-.016-1.802-.258-2.595-.704-.766-.433-1.368-1.105-1.713-1.912-.38-.863-.57-1.797-.557-2.739-.003-1.057.064-2.113.2-3.161.132-1.076.299-2.143.507-3.203.19-.922.316-1.857.374-2.797.05-1.084-.291-1.638-1.015-1.655-.724-.016-1.688.72-2.894 2.226-.5.675-.953 1.383-1.356 2.119-.689 1.22-1.308 2.476-1.855 3.765-.66 1.545-1.215 3.132-1.664 4.75-.47 1.648-.71 3.352-.715 5.065.064.457-.083.919-.4 1.257-.418.405-.958.66-1.538.729-.686.084-1.382-.031-2.004-.331-.787-.405-1.413-1.06-1.78-1.862-.476-1.083-.777-2.234-.89-3.41l-.262.664c-.26.66-.51 1.29-.703 1.76-.87 1.953-2.417 3.527-4.359 4.436-.903.396-1.882.591-2.87.571-.912-.019-1.805-.26-2.603-.703-.776-.424-1.388-1.094-1.738-1.903-.372-.865-.56-1.798-.549-2.74-.005-1.056.059-2.112.191-3.16.142-1.076.308-2.144.516-3.203.189-.923.31-1.857.366-2.797.05-1.084-.274-1.655-.981-1.655-.705-.028-1.661.711-2.87 2.218-.507.674-.969 1.382-1.38 2.118-.694 1.216-1.306 2.477-1.83 3.774-.654 1.547-1.21 3.133-1.664 4.75-.467 1.652-.724 3.356-.765 5.072.048.457-.097.912-.4 1.258-.404.424-.952.684-1.538.728-.684.085-1.377-.03-1.996-.33-.802-.397-1.44-1.058-1.805-1.87-.383-.854-.616-1.767-.69-2.699l-.001.001-.274.604c-.092.2-.184.396-.277.592l-.28.583c-.44.936-1 1.812-1.664 2.606-.54.601-1.2 1.083-1.938 1.415-.816.364-1.693.575-2.587.621-.921.046-1.844-.066-2.728-.33-.907-.271-1.727-.774-2.379-1.457-.906-1.017-1.52-2.258-1.78-3.592-.398-1.721-.607-3.48-.624-5.246v-1.962c-.998 1.3-1.813 2.657-2.445 3.484-1.624 2.626-1.123 6.033 1.19 8.085 1.63 1.06 2.245 1.374 1.938 2.326-.472.796-1.203 1.409-2.072 1.737-.817.322-1.714.385-2.57.182-1.022-.2-2.019-.517-2.969-.943-.987-.44-1.943-.946-2.861-1.514-.805-.486-1.58-1.02-2.32-1.597-2.006-1.541-3.723-3.42-5.075-5.553-1.319-2.287-2.405-4.699-3.243-7.2 0 0-1.485 4.21-4.127 9.536l-.323.644c-2.296 4.545-5.4 9.79-9.116 13.901-5.407 5.967-10.106 4.668-13.167 2.657-1.058 3.477-2.23 7.512-3.393 11.605l-.535 1.891-.134.473-.266.945c-2.96 10.533-5.638 20.555-5.911 21.497-.533 1.832-1.166 3.633-1.897 5.396 1.157.14 2.304.273 3.46.38 1.157.108 2.321.199 3.51.257 2.221.108 4.448.028 6.655-.24 2.215-.279 4.387-.835 6.462-1.655.905-.374 1.785-.802 2.637-1.283.84-.483 1.73-.877 2.653-1.175.408-.15.857-.15 1.265 0 .303.14.545.383.682.687.15.354.226.734.224 1.117.003.397-.03.793-.1 1.184-.364 1.527-1.035 2.965-1.97 4.228-.945 1.273-2.1 2.376-3.42 3.26-1.825 1.25-3.898 2.097-6.08 2.483-2.123.362-4.286.434-6.429.215-2.208-.225-4.388-.66-6.513-1.299-2.162-.645-4.242-1.316-6.221-2.002l-.1.132c-.848 1.3-1.802 2.53-2.853 3.674-1.052 1.18-2.315 2.153-3.726 2.872-1.28.613-2.689.914-4.109.877-1.422-.016-2.803-.473-3.95-1.308-.711-.502-1.283-1.173-1.664-1.953-.415-.836-.647-1.75-.682-2.68-.034-1.003.112-2.004.432-2.955.352-1.047.938-2 1.714-2.789.507-.542 1.097-1.003 1.746-1.365.65-.363 1.335-.657 2.046-.877 1.037-.337 2.114-.538 3.203-.596 1.09-.066 2.185-.066 3.277 0 1.26-3.18 2.938-10.841 4.62-18.933l.234-1.131.234-1.135.234-1.135.116-.567.233-1.132c.503-2.447.998-4.856 1.474-7.116l-.217.092c-.913.4-1.904.598-2.903.579-.913-.012-1.809-.254-2.603-.704-.763-.437-1.363-1.108-1.713-1.911-.373-.865-.56-1.798-.55-2.74-.002-1.056.065-2.112.2-3.16.133-1.076.3-2.144.508-3.195.191-.922.314-1.857.366-2.797.058-1.076-.283-1.638-1.007-1.655-.723-.016-1.688.72-2.894 2.226-.5.675-.953 1.383-1.356 2.119-.69 1.218-1.306 2.475-1.847 3.765-.663 1.546-1.219 3.136-1.663 4.758-.471 1.645-.712 3.346-.715 5.056.063.46-.087.923-.408 1.258-.413.408-.952.664-1.53.728-.686.085-1.381-.027-2.005-.322-.787-.408-1.413-1.067-1.78-1.87-.476-1.083-.776-2.234-.89-3.41-.35.886-.707 1.796-.965 2.425-.874 1.95-2.42 3.526-4.358 4.444-.906.388-1.884.582-2.87.57-.913-.022-1.807-.266-2.603-.711-.777-.424-1.389-1.094-1.738-1.903-.373-.866-.56-1.798-.55-2.74-.005-1.056.059-2.112.192-3.16.141-1.076.308-2.144.516-3.203.188-.92.31-1.852.366-2.789.05-1.084-.275-1.655-.982-1.655-.704-.028-1.66.712-2.87 2.218-.508.676-.97 1.387-1.38 2.126-.696 1.204-1.307 2.454-1.83 3.74-.657 1.544-1.213 3.128-1.664 4.743-.468 1.669-.722 3.39-.757 5.122.048.456-.096.912-.399 1.258-.404.424-.953.684-1.539.728-.682.084-1.375-.028-1.996-.323-.788-.405-1.415-1.064-1.78-1.87-.38-.857-.614-1.772-.69-2.706-.275.613-.549 1.208-.832 1.78-.438.937-.997 1.813-1.663 2.606-.564.599-1.247 1.075-2.005 1.399-.82.358-1.7.566-2.595.612-.919.045-1.839-.067-2.72-.331-.917-.272-1.744-.783-2.395-1.481-.906-1.017-1.521-2.258-1.78-3.592-.399-1.72-.608-3.48-.624-5.246V81.24c-.998 1.3-1.822 2.657-2.445 3.484-1.629 2.625-1.127 6.035 1.189 8.085 1.63 1.068 2.246 1.374 1.938 2.326-.472.796-1.202 1.409-2.071 1.737-.818.322-1.715.385-2.57.183-1.024-.197-2.02-.514-2.97-.944-.988-.437-1.944-.943-2.86-1.514-.806-.486-1.58-1.019-2.321-1.597-2.007-1.54-3.725-3.42-5.074-5.553-1.32-2.287-2.406-4.698-3.244-7.2-.743 1.766-1.656 3.725-2.615 5.682l-.321.652c-2.957 5.973-6.213 11.731-6.213 11.731-7.112 12.422-16.037 12.471-17.584 9.989-1.63-2.59-.449-5.272 1.298-6.728 4.275-3.599 8.176-7.616 11.644-11.991 1.356-1.87 2.662-3.774 3.926-5.685 1.265-1.912 2.446-3.757 3.56-5.528 1.398-2.218 2.745-4.53 4.043-6.935-.472-4.564-1.189-9.1-2.146-13.588-.208-.763-.486-1.506-.832-2.218-.328-.687-.782-1.307-1.34-1.829-.52-.485-1.16-.828-1.854-.993-.832-.176-1.698-.113-2.495.182-1.774.619-3.348 1.699-4.558 3.129-1.23 1.395-2.17 3.018-2.77 4.774-.55 1.435-.832 2.958-.832 4.494.02 1.542.342 3.066.948 4.485.346.821.764 1.61 1.248 2.359.475.735.658 1.62.516 2.482-.097.645-.302 1.269-.607 1.846-.32.58-.827 1.035-1.44 1.29-.529.208-1.094.309-1.663.298-.58.015-1.155-.125-1.663-.405-1.278-.724-2.342-1.768-3.086-3.029C1.907 73.4 1.39 71.957 1.15 70.46c-.275-1.616-.329-3.261-.158-4.891.173-1.688.527-3.352 1.056-4.965.567-1.767 1.394-3.44 2.454-4.965C5.589 54.076 6.9 52.68 8.395 51.5c1.491-1.186 3.18-2.102 4.99-2.706 1.853-.614 3.821-.801 5.757-.546 1.252.17 2.462.572 3.568 1.183 1.113.624 2.132 1.401 3.027 2.309.931.917 1.744 1.946 2.42 3.062 2.338 3.93 2.596 6.562 2.596 6.562.981-1.928 2.154-4.378 3.21-6.24 3.002-5.217 6.486-10.146 10.406-14.721.733-.908 1.528-1.765 2.379-2.566.845-.795 1.734-1.543 2.661-2.242.59-.504 1.295-.854 2.055-1.018.857-.187 1.754-.03 2.495.439.695.515 1.25 1.195 1.614 1.977.355.786.58 1.625.665 2.483.017.306-.033 1.936-.532 2.342-.865.72-2.953 2.747-3.485 3.269-3.402 3.376-8.443 8.565-11.262 12.595-2.82 4.03-6.388 9.078-7.32 12.305 0 0-2.021 8.002 5.706 16.658.388-.199.764-.423 1.123-.67 4.708-3.41 8.525-13.29 8.525-13.29.453-.804 1.206-1.399 2.096-1.655.824-.166 1.672-.166 2.496 0 .786.149 1.525.483 2.154.976.574.366.851 1.054.69 1.713-.55 2.012-.954 4.062-1.206 6.132-.22 1.679-.292 3.373-.216 5.065.014 1.142.266 2.27.74 3.31.408.745.932 1.018 1.605.827 2.338-.645 4.292-4.063 4.991-6.934v-.778c.05-1.887.466-9.045.998-10.378.266-.678 1.497-1.49 2.329-1.87.766-.366 1.604-.558 2.454-.562.737-.026 1.464.17 2.087.562.573.39.795 1.124.533 1.763-.117.438-.275.985-.433 1.655-.158.67-.332 1.456-.507 2.325-.175.87-.35 1.796-.516 2.797-.166 1.002-.316 2.011-.449 3.037.433-1.722.989-3.412 1.664-5.056.662-1.583 1.529-3.074 2.578-4.435.97-1.35 2.146-2.543 3.485-3.534 1.003-.753 2.153-1.288 3.377-1.572.946-.22 1.939-.118 2.82.29.842.41 1.506 1.11 1.871 1.969.34.87.5 1.798.474 2.73-.003 1.135-.078 2.269-.224 3.394-.15 1.183-.316 2.342-.524 3.5-.208 1.159-.341 2.177-.416 3.062-.09.685-.052 1.38.108 2.052.15.455.507.637 1.073.455.594-.219 1.087-.645 1.389-1.2.507-.784.95-1.61 1.322-2.466 2.035-6.076 3.521-12.321 4.442-18.66 1.98-14.664 5.065-20.16 7.486-22.112 2.039-1.474 4.687-1.83 7.045-.943 3.876 1.53 2.578 7.745 2.063 9.806-.516 2.06-4.176 11.958-8.152 17.502l.532-.525c1.075-1.037 2.217-2.003 3.42-2.893 1-.772 2.162-1.31 3.401-1.572.945-.225 1.939-.126 2.82.281.834.424 1.491 1.127 1.855 1.987.34.867.51 1.791.499 2.722.005 1.131-.062 2.262-.2 3.385-.15 1.183-.333 2.358-.532 3.508-.2 1.15-.341 2.169-.416 3.054-.085.685-.048 1.38.108 2.052.15.455.507.638 1.073.455.596-.218 1.093-.645 1.397-1.2l.058-.26.059-.26c2.791-12.107 9.507-15.333 10.95-15.92l.095-.038c.085-.034.142-.054.167-.064 2.495-.96 3.576-.422 3.743-.33.49.223.715.686.599.926-.047.096-.208.498-.385.946l-.133.34c-.223.568-.43 1.106-.43 1.106-.533 1.266-1.315 3.442-2.147 6.173 2.338.588 5.166-.091 7.66-4.229 1.224-2.066 3.087-5.348 5.052-8.85l.408-.728.204-.366.616-1.1.615-1.102.408-.731c3.184-5.715 6.1-11.015 6.455-11.659l.524-.89c.52-.896 1.027-1.808 1.522-2.735-.472-4.564-1.188-9.1-2.146-13.588-.207-.766-.485-1.511-.831-2.226-.33-.683-.785-1.3-1.34-1.82-.51-.484-1.138-.829-1.821-1.002-.832-.176-1.698-.113-2.495.182-1.774.618-3.348 1.699-4.558 3.129-1.231 1.394-2.172 3.017-2.77 4.774-.55 1.435-.832 2.958-.832 4.494.015 1.526.326 3.035.915 4.444.346.82.763 1.61 1.248 2.358.474.736.658 1.62.515 2.483-.096.645-.302 1.268-.607 1.845-.321.578-.828 1.032-1.439 1.291-.53.203-1.095.304-1.663.298-.582.016-1.158-.127-1.664-.414-1.278-.718-2.343-1.76-3.086-3.02-.766-1.308-1.287-2.744-1.538-4.237-.277-1.613-.327-3.256-.15-4.883.165-1.688.517-3.353 1.048-4.965 1.177-3.586 3.383-6.75 6.346-9.103 1.492-1.187 3.181-2.105 4.99-2.714 1.854-.61 3.821-.797 5.757-.546 1.26.168 2.476.572 3.584 1.192 1.104.634 2.112 1.42 2.995 2.333.93.917 1.743 1.946 2.42 3.062 2.337 3.923 2.595 6.562 2.595 6.562.982-1.928 2.154-4.386 3.21-6.24 3-5.224 6.483-10.158 10.406-14.738.733-.908 1.528-1.765 2.379-2.565.855-.807 1.755-1.567 2.695-2.276.607-.496 1.331-.832 2.104-.976zM102.85 118.307c-.429-.05-.861-.05-1.29 0-.408.056-.807.174-1.18.347-.347.169-.613.466-.741.828-.133.32-.133.68 0 1 .1.278.31.503.582.622.319.106.663.106.982 0 .44-.133.83-.392 1.123-.745.317-.287.596-.612.831-.968.208-.323.441-.654.682-.96-.327-.06-.657-.102-.99-.124zm96.033-48.058c1.792-.793 3.751-1.134 5.706-.994 1.638.103 3.226.61 4.62 1.478 1.217.75 2.179 1.85 2.761 3.155.566 1.282.651 2.725.242 4.065-.37 1.317-.932 2.571-1.668 3.723-1.023 1.453-2.254 2.746-3.653 3.84-3.42 2.421-7.032 4.016-9.259 4.416.348.854.982 1.56 1.793 1.995.995.638 2.155.972 3.337.96 1.338-.013 2.662-.277 3.903-.776 1.358-.532 2.633-1.254 3.787-2.145 1.686-1.357 3.116-3.006 4.221-4.867 1.417-2.269 2.525-4.717 3.295-7.28.242-.873.675-1.683 1.268-2.37.3-.405.78-.639 1.284-.626.376.059.667.384.776.835.203.737.203 1.516 0 2.254-.232 1.138-.559 2.255-.976 3.339-.482 1.286-1.04 2.543-1.668 3.765-.69 1.34-1.467 2.635-2.327 3.873-.884 1.275-1.884 2.465-2.987 3.556-1.661 1.697-3.647 3.043-5.838 3.957-2.061.888-4.265 1.397-6.507 1.502-2.072.097-4.138-.286-6.039-1.118-1.843-.806-3.382-2.177-4.395-3.915-.28-.477-.53-.97-.751-1.478-.817.242-5.747.3-8.558-1.052-1.092 2.785-2.49 5.44-4.17 7.914-1.377 1.885-2.949 3.62-4.688 5.175-1.186 1.038-2.494 1.927-3.896 2.647-1.231.648-2.571 1.064-3.953 1.227-1.323.137-2.656-.125-3.83-.752-1.137-.798-1.944-1.986-2.268-3.339-.516-1.647-.868-3.342-1.05-5.058-.01-.067-.11-1.737-.11-1.737-.504 3.023-1.387 5.971-2.627 8.774-.462 1.079-1.102 2.072-1.893 2.938-.642.796-1.44 1.452-2.344 1.928-.162.083-.33.155-.5.217l-.29.122c-2.81 1.122-6.01.713-8.452-1.098-2.953-2.33-3.987-8.723-3.462-14.475.27-3.322 1.011-6.588 2.202-9.7.271-.742.942-1.264 1.727-1.344.96-.216 1.952-.236 2.92-.058.937.147 1.822.526 2.577 1.102.68.43 1.015 1.243.834 2.028 0 0-.904 3.459-1.468 7.169l-.086.587c-.207 1.472-.352 2.956-.356 4.256-.017 4.767 1.06 6.904 3.144 6.887 2.086-.017 5.606-5.693 6.59-10.443.95-4.641.55-7.98.175-12.154v-.359l-.027-.16c-.081-.506-.081-.775-.081-.775-.134-.681.209-1.367.834-1.67.775-.38 1.645-.526 2.502-.417 1.045.1 2.064.383 3.011.835.906.387 1.674 1.038 2.202 1.87.601 1.093.997 2.287 1.168 3.523.267 1.494.467 3.055.6 4.7.134 1.644.243 3.23.343 4.757.058 1.229.192 2.453.4 3.665.209 1.11.634 1.745 1.276 1.895.685.144 1.39-.127 1.802-.693 1.195-1.388 2.12-2.988 2.728-4.716.722-1.937 1.28-3.93 1.668-5.96.392-2.029.67-4.077.834-6.136.2-2.012.2-5.1.2-6.57-.037-.882.479-1.695 1.293-2.036.872-.251 1.797-.251 2.67 0 1.005.251 1.944.718 2.752 1.369.838.62 1.396 1.548 1.551 2.579.082 3.082-.381 6.153-1.368 9.074h.059c1.528.48 3.144.612 4.73.384.441-.092 1.058-.25 1.776-.443l.067-.075c-.042-.359-.084-.718-.084-1.093-.067-2.254.292-4.5 1.06-6.62.774-2.147 1.945-4.13 3.453-5.843 1.498-1.735 3.376-3.101 5.488-3.99zm6.548 3.213c-.98-.203-2 .046-2.778.677-1.085.761-2.028 1.708-2.786 2.796-.906 1.259-1.644 2.631-2.193 4.082-.58 1.423-.901 2.938-.951 4.474l1.543-.5c1.24-.534 2.384-1.267 3.386-2.17 1.276-1.122 2.379-2.428 3.27-3.874.7-1.09 1.158-2.316 1.343-3.598.142-1.052-.15-1.703-.834-1.887zm-58.538-3.551c.826-.103 1.663.033 2.42.392.857.452 1.542 1.19 1.944 2.093.56.966.814 2.09.726 3.212-.092.952-.423 1.864-.96 2.644-.536.767-1.227 1.404-2.025 1.868-.782.47-1.656.755-2.557.834-.864.09-1.736-.06-2.525-.433-.813-.418-1.453-1.126-1.8-1.994-.477-.931-.676-1.988-.572-3.036.105-.956.432-1.872.952-2.67.519-.796 1.192-1.472 1.977-1.984.729-.493 1.556-.81 2.42-.926zm-91.64-9.815c.734-.062 1.47.08 2.128.406.728.378 1.308.981 1.65 1.718.89 1.525.763 3.429-.321 4.826-.476.625-1.084 1.139-1.782 1.506-.687.38-1.45.606-2.237.66-.746.058-1.495-.08-2.17-.4-.72-.343-1.289-.933-1.6-1.66-.396-.78-.548-1.658-.438-2.523.113-.789.416-1.54.883-2.19.457-.657 1.05-1.212 1.741-1.627.65-.4 1.384-.644 2.145-.716zm47.638-11.724c.973-3.079-.324-3.509-1.663-.596-.577 1.255-1.548 4.56-2.465 7.952l-.196.727c-1.135 4.244-2.139 8.404-2.139 8.65v-.002l.055-.135.067-.166c.38-.947 1.597-3.989 2.877-7.245l.265-.677c1.373-3.503 2.756-7.105 3.2-8.508zm77.521-22.885c.72-.068 1.447.062 2.097.376.733.375 1.316.982 1.658 1.722.894 1.53.766 3.44-.323 4.841-.478.627-1.09 1.142-1.79 1.51-.69.384-1.457.61-2.247.662-.75.062-1.505-.08-2.18-.408-.706-.34-1.263-.92-1.567-1.633-.396-.78-.55-1.657-.44-2.523.115-.79.419-1.544.888-2.196.46-.66 1.055-1.216 1.749-1.633.652-.4 1.39-.646 2.155-.718zm47.95-11.648c.973-3.087-.325-3.525-1.664-.604S221.9 30.108 221.9 30.572l.085-.212.127-.316c.491-1.226 1.768-4.416 3.052-7.693l.266-.679.264-.677c1.184-3.04 2.282-5.93 2.669-7.156z" transform="translate(-403 -2897) translate(58 2115) translate(345 782.387) translate(0 .613)"/>
                    </g>
                </g>
            </g>
        </g>
    </g>
</svg>